  0
SECTION
  2
HEADER
  9
$ACADVER
  1
AC1006
  9
$EXTMIN
 10
0.000000
 20
0.000000
 30
0.000000
  9
$EXTMAX
 10
886.000000
 20
886.000000
 30
0.000000
  0
ENDSEC
  0
SECTION
  2
ENTITIES
  0
POLYLINE
  8
0
 66
1
 70
1
  0
VERTEX
  8
0
 10
512.156284
 20
586.964101
 42
0.033905
  0
VERTEX
  8
0
 10
503.682939
 20
585.219482
 42
0.024160
  0
VERTEX
  8
0
 10
494.479192
 20
582.178133
 42
0.023432
  0
VERTEX
  8
0
 10
485.257610
 20
578.122737
 42
0.025487
  0
VERTEX
  8
0
 10
476.719369
 20
573.322845
 42
-0.019390
  0
VERTEX
  8
0
 10
474.440907
 20
572.005178
 42
-0.078309
  0
VERTEX
  8
0
 10
472.926100
 20
571.487595
 42
-0.091297
  0
VERTEX
  8
0
 10
471.446260
 20
571.501126
 42
-0.031896
  0
VERTEX
  8
0
 10
469.377789
 20
572.040333
 42
0.052673
  0
VERTEX
  8
0
 10
465.330571
 20
572.917894
 42
0.036104
  0
VERTEX
  8
0
 10
460.629796
 20
573.087662
 42
0.036578
  0
VERTEX
  8
0
 10
456.075612
 20
572.588354
 42
0.065278
  0
VERTEX
  8
0
 10
452.495868
 20
571.431015
 42
0.068770
  0
VERTEX
  8
0
 10
448.753452
 20
568.977015
 42
0.038997
  0
VERTEX
  8
0
 10
444.954664
 20
565.099374
 42
0.038955
  0
VERTEX
  8
0
 10
441.795084
 20
560.667081
 42
0.067210
  0
VERTEX
  8
0
 10
440.004184
 20
556.514944
 42
0.064280
  0
VERTEX
  8
0
 10
439.203423
 20
551.016172
 42
0.067921
  0
VERTEX
  8
0
 10
439.853151
 20
545.600847
 42
0.063804
  0
VERTEX
  8
0
 10
441.992863
 20
540.282014
 42
0.047433
  0
VERTEX
  8
0
 10
445.595666
 20
535.068677
 42
-0.042139
  0
VERTEX
  8
0
 10
447.103121
 20
532.935901
 42
-0.082718
  0
VERTEX
  8
0
 10
447.844790
 20
531.000719
 42
-0.047632
  0
VERTEX
  8
0
 10
448.130914
 20
528.304775
 42
-0.006681
  0
VERTEX
  8
0
 10
448.115117
 20
522.698797
 42
0.010150
  0
VERTEX
  8
0
 10
448.131291
 20
518.773851
 42
0.008341
  0
VERTEX
  8
0
 10
448.303496
 20
514.586522
 42
0.008443
  0
VERTEX
  8
0
 10
448.590938
 20
510.744105
 42
0.022040
  0
VERTEX
  8
0
 10
448.965414
 20
508.000000
 42
-0.006098
  0
VERTEX
  8
0
 10
451.397539
 20
493.616371
 42
-0.045914
  0
VERTEX
  8
0
 10
451.835323
 20
486.736408
 42
-0.140938
  0
VERTEX
  8
0
 10
450.754264
 20
483.341103
 42
-0.248555
  0
VERTEX
  8
0
 10
448.230948
 20
481.978038
 42
0.110128
  0
VERTEX
  8
0
 10
442.418223
 20
480.632875
 42
0.061769
  0
VERTEX
  8
0
 10
436.285248
 20
476.700381
 42
0.055438
  0
VERTEX
  8
0
 10
430.613410
 20
470.809839
 42
0.050306
  0
VERTEX
  8
0
 10
426.159845
 20
463.629875
 42
0.033431
  0
VERTEX
  8
0
 10
423.565656
 20
457.279680
 42
0.036776
  0
VERTEX
  8
0
 10
421.938156
 20
450.838034
 42
0.035786
  0
VERTEX
  8
0
 10
421.242972
 20
444.073698
 42
0.028722
  0
VERTEX
  8
0
 10
421.437353
 20
436.756361
 42
-0.000943
  0
VERTEX
  8
0
 10
421.717807
 20
433.348041
 42
-0.000940
  0
VERTEX
  8
0
 10
421.985744
 20
429.934580
 42
-0.000919
  0
VERTEX
  8
0
 10
422.208766
 20
426.951171
 42
-0.003700
  0
VERTEX
  8
0
 10
422.328175
 20
425.127315
 42
0.112766
  0
VERTEX
  8
0
 10
423.304890
 20
421.763162
 42
0.044520
  0
VERTEX
  8
0
 10
426.026935
 20
417.751094
 42
0.043777
  0
VERTEX
  8
0
 10
429.618150
 20
414.066790
 42
0.067007
  0
VERTEX
  8
0
 10
433.351151
 20
411.637657
 42
0.072883
  0
VERTEX
  8
0
 10
437.304860
 20
410.425204
 42
0.041869
  0
VERTEX
  8
0
 10
442.287958
 20
410.084026
 42
0.041383
  0
VERTEX
  8
0
 10
447.366351
 20
410.583557
 42
0.061450
  0
VERTEX
  8
0
 10
451.626629
 20
411.917835
 42
0.013348
  0
VERTEX
  8
0
 10
453.252207
 20
412.709011
 42
0.016383
  0
VERTEX
  8
0
 10
454.723670
 20
413.536753
 42
0.014912
  0
VERTEX
  8
0
 10
455.903345
 20
414.301229
 42
0.103468
  0
VERTEX
  8
0
 10
456.374907
 20
414.797595
 42
-0.342972
  0
VERTEX
  8
0
 10
456.838433
 20
414.970177
 42
-0.056380
  0
VERTEX
  8
0
 10
457.772829
 20
414.556238
 42
-0.041452
  0
VERTEX
  8
0
 10
458.971183
 20
413.714189
 42
-0.022510
  0
VERTEX
  8
0
 10
460.300932
 20
412.499068
 42
0.070664
  0
VERTEX
  8
0
 10
463.742402
 20
409.913640
 42
0.042401
  0
VERTEX
  8
0
 10
468.421250
 20
407.832831
 42
0.040261
  0
VERTEX
  8
0
 10
473.721452
 20
406.461220
 42
0.043215
  0
VERTEX
  8
0
 10
479.047887
 20
406.000000
 42
0.029062
  0
VERTEX
  8
0
 10
481.669395
 20
406.152504
 42
0.005904
  0
VERTEX
  8
0
 10
486.288023
 20
406.747054
 42
0.006206
  0
VERTEX
  8
0
 10
491.648910
 20
407.569588
 42
0.005781
  0
VERTEX
  8
0
 10
497.116386
 20
408.543164
 42
-0.014916
  0
VERTEX
  8
0
 10
508.515280
 20
410.358778
 42
-0.082270
  0
VERTEX
  8
0
 10
514.707941
 20
410.135459
 42
-0.166153
  0
VERTEX
  8
0
 10
518.331277
 20
408.014846
 42
-0.117393
  0
VERTEX
  8
0
 10
520.519492
 20
403.793847
 42
-0.161725
  0
VERTEX
  8
0
 10
520.365080
 20
401.769276
 42
-0.067212
  0
VERTEX
  8
0
 10
518.959232
 20
399.375471
 42
-0.026216
  0
VERTEX
  8
0
 10
515.723258
 20
395.668493
 42
-0.002907
  0
VERTEX
  8
0
 10
507.847403
 20
387.641561
 42
-0.007637
  0
VERTEX
  8
0
 10
501.793715
 20
381.726580
 42
-0.009757
  0
VERTEX
  8
0
 10
496.029741
 20
376.473882
 42
-0.010738
  0
VERTEX
  8
0
 10
490.897382
 20
372.168181
 42
-0.025602
  0
VERTEX
  8
0
 10
486.863780
 20
369.255748
 42
-0.023444
  0
VERTEX
  8
0
 10
480.797611
 20
365.723476
 42
-0.019024
  0
VERTEX
  8
0
 10
473.994676
 20
362.501034
 42
-0.019525
  0
VERTEX
  8
0
 10
467.306359
 20
359.943084
 42
-0.035214
  0
VERTEX
  8
0
 10
461.631688
 20
358.458727
 42
-0.014519
  0
VERTEX
  8
0
 10
459.585507
 20
358.136048
 42
-0.114236
  0
VERTEX
  8
0
 10
458.635064
 20
358.231518
 42
-0.234090
  0
VERTEX
  8
0
 10
458.160684
 20
358.707892
 42
-0.081027
  0
VERTEX
  8
0
 10
458.000000
 20
359.692928
 42
0.121498
  0
VERTEX
  8
0
 10
457.372952
 20
362.235332
 42
0.024652
  0
VERTEX
  8
0
 10
454.995522
 20
366.265971
 42
0.026946
  0
VERTEX
  8
0
 10
452.000624
 20
370.321456
 42
0.045362
  0
VERTEX
  8
0
 10
449.025548
 20
373.325049
 42
0.059047
  0
VERTEX
  8
0
 10
441.866297
 20
378.031435
 42
0.050924
  0
VERTEX
  8
0
 10
433.443642
 20
381.219378
 42
0.050785
  0
VERTEX
  8
0
 10
424.525784
 20
382.645620
 42
0.057930
  0
VERTEX
  8
0
 10
415.901128
 20
382.139404
 42
0.054766
  0
VERTEX
  8
0
 10
406.814120
 20
379.489164
 42
0.061326
  0
VERTEX
  8
0
 10
398.887858
 20
374.996019
 42
0.061702
  0
VERTEX
  8
0
 10
392.326593
 20
368.741736
 42
0.056545
  0
VERTEX
  8
0
 10
387.264339
 20
360.898044
 42
0.000000
  0
VERTEX
  8
0
 10
384.276443
 20
354.869759
 42
0.000000
  0
VERTEX
  8
0
 10
383.608933
 20
359.044137
 42
-0.018234
  0
VERTEX
  8
0
 10
383.299102
 20
361.569029
 42
-0.002475
  0
VERTEX
  8
0
 10
382.869599
 20
366.880509
 42
-0.002848
  0
VERTEX
  8
0
 10
382.427505
 20
373.181963
 42
-0.002399
  0
VERTEX
  8
0
 10
382.029406
 20
379.859257
 42
0.002411
  0
VERTEX
  8
0
 10
381.631355
 20
386.533125
 42
0.002871
  0
VERTEX
  8
0
 10
381.189394
 20
392.824193
 42
0.002485
  0
VERTEX
  8
0
 10
380.759931
 20
398.124480
 42
0.018596
  0
VERTEX
  8
0
 10
380.450497
 20
400.627358
 42
-0.031292
  0
VERTEX
  8
0
 10
380.206422
 20
403.119417
 42
-0.098964
  0
VERTEX
  8
0
 10
380.476002
 20
404.766627
 42
-0.078724
  0
VERTEX
  8
0
 10
381.395830
 20
406.385769
 42
-0.015241
  0
VERTEX
  8
0
 10
383.581817
 20
408.958882
 42
-0.053084
  0
VERTEX
  8
0
 10
387.725432
 20
412.667192
 42
-0.037287
  0
VERTEX
  8
0
 10
393.067474
 20
415.938080
 42
-0.035610
  0
VERTEX
  8
0
 10
399.142478
 20
418.532936
 42
-0.036270
  0
VERTEX
  8
0
 10
405.487339
 20
420.220667
 42
0.006509
  0
VERTEX
  8
0
 10
409.644464
 20
421.065473
 42
0.086936
  0
VERTEX
  8
0
 10
411.082883
 20
421.651609
 42
0.235474
  0
VERTEX
  8
0
 10
411.603016
 20
422.503991
 42
0.080825
  0
VERTEX
  8
0
 10
411.490173
 20
423.987319
 42
0.043605
  0
VERTEX
  8
0
 10
410.132598
 20
428.024609
 42
0.030091
  0
VERTEX
  8
0
 10
407.939796
 20
432.323325
 42
0.029349
  0
VERTEX
  8
0
 10
405.162428
 20
436.466506
 42
0.034056
  0
VERTEX
  8
0
 10
402.042766
 20
440.042766
 42
0.111085
  0
VERTEX
  8
0
 10
388.634514
 20
448.526493
 42
0.111485
  0
VERTEX
  8
0
 10
372.903035
 20
450.436442
 42
0.111612
  0
VERTEX
  8
0
 10
357.891009
 20
445.402575
 42
0.111550
  0
VERTEX
  8
0
 10
346.500000
 20
434.400618
 42
-0.000068
  0
VERTEX
  8
0
 10
344.876632
 20
431.926749
 42
-0.000076
  0
VERTEX
  8
0
 10
343.306621
 20
429.535694
 42
-0.000070
  0
VERTEX
  8
0
 10
341.965852
 20
427.495064
 42
-0.000392
  0
VERTEX
  8
0
 10
341.245943
 20
426.401575
 42
-0.738195
  0
VERTEX
  8
0
 10
340.379994
 20
426.654358
 42
-0.021930
  0
VERTEX
  8
0
 10
340.545804
 20
432.393221
 42
-0.014609
  0
VERTEX
  8
0
 10
341.484657
 20
441.569986
 42
-0.006659
  0
VERTEX
  8
0
 10
343.220489
 20
453.500000
 42
0.009286
  0
VERTEX
  8
0
 10
344.886286
 20
465.386510
 42
0.028977
  0
VERTEX
  8
0
 10
345.392560
 20
473.447154
 42
0.043777
  0
VERTEX
  8
0
 10
344.928116
 20
479.049623
 42
0.119847
  0
VERTEX
  8
0
 10
343.360136
 20
482.669449
 42
0.110741
  0
VERTEX
  8
0
 10
340.696518
 20
484.926175
 42
0.155128
  0
VERTEX
  8
0
 10
337.646286
 20
485.463922
 42
0.122102
  0
VERTEX
  8
0
 10
334.295058
 20
484.139754
 42
0.056031
  0
VERTEX
  8
0
 10
330.775229
 20
480.981888
 42
0.084262
  0
VERTEX
  8
0
 10
323.808000
 20
469.856119
 42
0.044102
  0
VERTEX
  8
0
 10
318.914569
 20
454.214790
 42
0.040429
  0
VERTEX
  8
0
 10
316.465617
 20
436.082014
 42
0.037558
  0
VERTEX
  8
0
 10
316.871639
 20
417.331619
 42
0.005755
  0
VERTEX
  8
0
 10
317.647424
 20
410.192437
 42
0.010996
  0
VERTEX
  8
0
 10
318.462305
 20
404.481949
 42
0.009569
  0
VERTEX
  8
0
 10
319.601669
 20
398.321134
 42
0.003340
  0
VERTEX
  8
0
 10
321.469749
 20
389.500000
 42
0.000000
  0
VERTEX
  8
0
 10
322.126039
 20
386.500000
 42
0.000000
  0
VERTEX
  8
0
 10
319.029110
 20
390.000000
 42
-0.064494
  0
VERTEX
  8
0
 10
312.883555
 20
399.068972
 42
-0.020940
  0
VERTEX
  8
0
 10
306.194485
 20
413.853350
 42
-0.020741
  0
VERTEX
  8
0
 10
300.153978
 20
430.846784
 42
-0.023914
  0
VERTEX
  8
0
 10
295.862037
 20
447.500000
 42
-0.028723
  0
VERTEX
  8
0
 10
294.346390
 20
457.737161
 42
-0.015096
  0
VERTEX
  8
0
 10
293.582878
 20
470.583194
 42
-0.013933
  0
VERTEX
  8
0
 10
293.563986
 20
484.972162
 42
-0.012185
  0
VERTEX
  8
0
 10
294.329844
 20
500.000000
 42
0.015611
  0
VERTEX
  8
0
 10
294.661085
 20
507.511889
 42
0.064868
  0
VERTEX
  8
0
 10
294.133950
 20
512.008075
 42
0.128836
  0
VERTEX
  8
0
 10
292.721284
 20
514.578509
 42
0.168721
  0
VERTEX
  8
0
 10
290.357744
 20
515.802151
 42
0.257094
  0
VERTEX
  8
0
 10
286.760628
 20
514.448753
 42
0.046333
  0
VERTEX
  8
0
 10
282.483420
 20
508.394292
 42
0.041480
  0
VERTEX
  8
0
 10
278.466371
 20
499.851228
 42
0.032105
  0
VERTEX
  8
0
 10
275.500503
 20
490.000000
 42
0.036343
  0
VERTEX
  8
0
 10
274.062071
 20
480.829804
 42
0.012374
  0
VERTEX
  8
0
 10
273.277494
 20
467.362374
 42
0.012678
  0
VERTEX
  8
0
 10
273.164858
 20
453.441598
 42
0.025038
  0
VERTEX
  8
0
 10
273.908390
 20
442.415035
 42
0.025761
  0
VERTEX
  8
0
 10
277.738767
 20
419.953357
 42
0.029099
  0
VERTEX
  8
0
 10
283.754892
 20
398.920603
 42
0.029946
  0
VERTEX
  8
0
 10
291.982963
 20
379.276367
 42
0.030885
  0
VERTEX
  8
0
 10
302.425276
 20
360.965444
 42
0.048111
  0
VERTEX
  8
0
 10
317.571067
 20
342.088794
 42
0.057058
  0
VERTEX
  8
0
 10
335.274609
 20
327.640951
 42
0.054422
  0
VERTEX
  8
0
 10
356.497915
 20
317.079526
 42
0.038298
  0
VERTEX
  8
0
 10
382.172496
 20
309.795028
 42
0.014024
  0
VERTEX
  8
0
 10
389.328957
 20
308.552907
 42
0.020385
  0
VERTEX
  8
0
 10
395.702186
 20
307.893851
 42
0.013375
  0
VERTEX
  8
0
 10
403.814431
 20
307.605496
 42
0.002816
  0
VERTEX
  8
0
 10
418.000000
 20
307.560813
 42
0.002919
  0
VERTEX
  8
0
 10
432.591767
 20
307.682215
 42
0.014421
  0
VERTEX
  8
0
 10
440.803207
 20
308.035504
 42
0.020339
  0
VERTEX
  8
0
 10
447.633791
 20
308.807267
 42
0.010094
  0
VERTEX
  8
0
 10
456.222196
 20
310.311332
 42
0.050573
  0
VERTEX
  8
0
 10
496.273186
 20
322.464696
 42
0.057475
  0
VERTEX
  8
0
 10
531.250868
 20
342.052736
 42
0.059416
  0
VERTEX
  8
0
 10
559.906283
 20
368.429543
 42
0.060739
  0
VERTEX
  8
0
 10
581.310243
 20
400.622172
 42
0.048081
  0
VERTEX
  8
0
 10
591.225272
 20
426.235320
 42
0.040283
  0
VERTEX
  8
0
 10
596.808218
 20
454.842963
 42
0.039011
  0
VERTEX
  8
0
 10
597.838893
 20
484.942409
 42
0.038399
  0
VERTEX
  8
0
 10
594.198915
 20
515.000000
 42
0.000000
  0
VERTEX
  8
0
 10
592.500000
 20
523.500000
 42
0.000000
  0
VERTEX
  8
0
 10
598.000000
 20
526.589082
 42
0.079637
  0
VERTEX
  8
0
 10
605.742068
 20
532.731384
 42
0.101548
  0
VERTEX
  8
0
 10
610.406732
 20
540.534955
 42
0.106573
  0
VERTEX
  8
0
 10
611.492383
 20
549.243620
 42
0.095679
  0
VERTEX
  8
0
 10
608.982995
 20
558.000000
 42
0.055746
  0
VERTEX
  8
0
 10
605.369714
 20
563.499997
 42
0.078207
  0
VERTEX
  8
0
 10
600.967821
 20
567.376908
 42
0.080519
  0
VERTEX
  8
0
 10
595.691964
 20
569.640436
 42
0.063132
  0
VERTEX
  8
0
 10
589.500000
 20
570.377611
 42
0.046576
  0
VERTEX
  8
0
 10
585.050866
 20
569.928126
 42
0.037754
  0
VERTEX
  8
0
 10
580.425216
 20
568.651706
 42
0.038382
  0
VERTEX
  8
0
 10
576.508499
 20
566.895825
 42
0.130497
  0
VERTEX
  8
0
 10
574.493503
 20
564.989488
 42
-0.413205
  0
VERTEX
  8
0
 10
573.923431
 20
564.853875
 42
-0.017443
  0
VERTEX
  8
0
 10
572.015049
 20
566.117901
 42
-0.020747
  0
VERTEX
  8
0
 10
569.613664
 20
567.986953
 42
-0.011011
  0
VERTEX
  8
0
 10
566.791089
 20
570.487079
 42
0.031034
  0
VERTEX
  8
0
 10
560.763373
 20
575.410158
 42
0.029003
  0
VERTEX
  8
0
 10
554.039057
 20
579.671323
 42
0.029482
  0
VERTEX
  8
0
 10
546.991899
 20
583.057165
 42
0.035282
  0
VERTEX
  8
0
 10
540.000000
 20
585.361850
 42
0.029871
  0
VERTEX
  8
0
 10
533.708250
 20
586.559790
 42
0.017737
  0
VERTEX
  8
0
 10
526.105645
 20
587.268506
 42
0.017748
  0
VERTEX
  8
0
 10
518.488593
 20
587.436023
 42
0.030452
  0
SEQEND
  0
POLYLINE
  8
0
 66
1
 70
1
  0
VERTEX
  8
0
 10
547.450000
 20
555.922184
 42
-0.202484
  0
VERTEX
  8
0
 10
547.607206
 20
555.551070
 42
-0.277617
  0
VERTEX
  8
0
 10
547.424988
 20
555.247409
 42
-0.097236
  0
VERTEX
  8
0
 10
546.788993
 20
555.054245
 42
-0.025256
  0
VERTEX
  8
0
 10
545.715777
 20
555.000000
 42
0.077095
  0
VERTEX
  8
0
 10
544.425190
 20
554.799814
 42
0.037062
  0
VERTEX
  8
0
 10
542.866944
 20
554.174066
 42
0.034505
  0
VERTEX
  8
0
 10
541.249886
 20
553.237577
 42
0.033837
  0
VERTEX
  8
0
 10
539.765777
 20
552.082029
 42
0.029246
  0
VERTEX
  8
0
 10
537.997185
 20
550.305322
 42
0.082145
  0
VERTEX
  8
0
 10
537.067050
 20
548.824076
 42
0.076396
  0
VERTEX
  8
0
 10
536.627319
 20
547.060016
 42
0.022953
  0
VERTEX
  8
0
 10
536.500000
 20
544.288050
 42
0.052358
  0
VERTEX
  8
0
 10
536.953261
 20
539.971471
 42
0.096714
  0
VERTEX
  8
0
 10
538.328622
 20
536.737122
 42
0.106034
  0
VERTEX
  8
0
 10
540.714277
 20
534.448603
 42
0.072705
  0
VERTEX
  8
0
 10
544.169126
 20
532.954459
 42
-0.048343
  0
VERTEX
  8
0
 10
546.887248
 20
531.932452
 42
-0.531258
  0
VERTEX
  8
0
 10
547.020916
 20
530.969008
 42
-0.163928
  0
VERTEX
  8
0
 10
545.238668
 20
530.200715
 42
-0.019682
  0
VERTEX
  8
0
 10
540.897883
 20
530.015313
 42
-0.067677
  0
VERTEX
  8
0
 10
536.609292
 20
530.583934
 42
-0.080918
  0
VERTEX
  8
0
 10
532.906121
 20
532.275354
 42
-0.084322
  0
VERTEX
  8
0
 10
530.044996
 20
534.984833
 42
-0.081689
  0
VERTEX
  8
0
 10
528.200791
 20
538.515552
 42
-0.091867
  0
VERTEX
  8
0
 10
527.423327
 20
544.234522
 42
-0.092180
  0
VERTEX
  8
0
 10
528.748495
 20
549.845001
 42
-0.097750
  0
VERTEX
  8
0
 10
531.900426
 20
554.348340
 42
-0.119162
  0
VERTEX
  8
0
 10
536.332914
 20
556.933778
 42
-0.059223
  0
VERTEX
  8
0
 10
539.187453
 20
557.431218
 42
-0.036257
  0
VERTEX
  8
0
 10
542.608367
 20
557.368740
 42
-0.035224
  0
VERTEX
  8
0
 10
545.737671
 20
556.859997
 42
-0.135561
  0
SEQEND
  0
POLYLINE
  8
0
 66
1
 70
1
  0
VERTEX
  8
0
 10
477.883140
 20
554.093385
 42
-0.107916
  0
VERTEX
  8
0
 10
478.333936
 20
553.647813
 42
-0.362031
  0
VERTEX
  8
0
 10
478.288411
 20
553.265372
 42
-0.119570
  0
VERTEX
  8
0
 10
477.682281
 20
552.918647
 42
-0.016348
  0
VERTEX
  8
0
 10
476.258722
 20
552.556825
 42
0.083102
  0
VERTEX
  8
0
 10
472.908361
 20
551.210765
 42
0.103131
  0
VERTEX
  8
0
 10
470.463218
 20
548.917364
 42
0.094215
  0
VERTEX
  8
0
 10
468.993613
 20
545.661542
 42
0.059099
  0
VERTEX
  8
0
 10
468.500000
 20
541.500000
 42
0.061055
  0
VERTEX
  8
0
 10
469.025944
 20
537.208921
 42
0.100898
  0
VERTEX
  8
0
 10
470.591983
 20
533.925435
 42
0.107689
  0
VERTEX
  8
0
 10
473.230994
 20
531.656687
 42
0.077091
  0
VERTEX
  8
0
 10
476.909931
 20
530.348402
 42
0.000000
  0
VERTEX
  8
0
 10
480.500000
 20
529.666184
 42
0.000000
  0
VERTEX
  8
0
 10
477.246571
 20
528.328825
 42
-0.112933
  0
VERTEX
  8
0
 10
472.195639
 20
527.487295
 42
-0.097633
  0
VERTEX
  8
0
 10
466.983756
 20
528.842945
 42
-0.096087
  0
VERTEX
  8
0
 10
462.610346
 20
532.103921
 42
-0.105320
  0
VERTEX
  8
0
 10
459.944626
 20
536.667784
 42
-0.093298
  0
VERTEX
  8
0
 10
459.278363
 20
541.658444
 42
-0.075698
  0
VERTEX
  8
0
 10
460.376328
 20
546.953811
 42
-0.079758
  0
VERTEX
  8
0
 10
462.904571
 20
551.423912
 42
-0.128931
  0
VERTEX
  8
0
 10
466.388117
 20
554.019931
 42
-0.067054
  0
VERTEX
  8
0
 10
468.946474
 20
554.673410
 42
-0.027453
  0
VERTEX
  8
0
 10
472.532553
 20
554.893449
 42
-0.025470
  0
VERTEX
  8
0
 10
475.998458
 20
554.738977
 42
-0.117816
  0
SEQEND
  0
POLYLINE
  8
0
 66
1
 70
1
  0
VERTEX
  8
0
 10
514.027494
 20
535.314651
 42
-0.018537
  0
VERTEX
  8
0
 10
515.307247
 20
534.371008
 42
-0.005025
  0
VERTEX
  8
0
 10
517.260428
 20
532.783507
 42
-0.005078
  0
VERTEX
  8
0
 10
519.442132
 20
530.935824
 42
-0.005253
  0
VERTEX
  8
0
 10
521.561196
 20
529.064651
 42
0.024478
  0
VERTEX
  8
0
 10
524.092962
 20
526.996658
 42
0.010961
  0
VERTEX
  8
0
 10
527.607594
 20
524.518991
 42
0.010820
  0
VERTEX
  8
0
 10
531.445156
 20
522.056604
 42
0.014447
  0
VERTEX
  8
0
 10
535.037465
 20
520.000000
 42
-0.024719
  0
VERTEX
  8
0
 10
544.064019
 20
514.583176
 42
-0.071865
  0
VERTEX
  8
0
 10
549.455619
 20
509.724986
 42
-0.080005
  0
VERTEX
  8
0
 10
552.930727
 20
503.851156
 42
-0.035961
  0
VERTEX
  8
0
 10
555.609979
 20
495.271322
 42
-0.047752
  0
VERTEX
  8
0
 10
556.826235
 20
486.340640
 42
-0.021704
  0
VERTEX
  8
0
 10
556.785197
 20
474.538641
 42
-0.021632
  0
VERTEX
  8
0
 10
555.685349
 20
462.369623
 42
-0.034540
  0
VERTEX
  8
0
 10
553.586856
 20
452.145970
 42
-0.003755
  0
VERTEX
  8
0
 10
550.956232
 20
442.963496
 42
-0.153057
  0
VERTEX
  8
0
 10
549.813155
 20
441.257303
 42
-0.448289
  0
VERTEX
  8
0
 10
548.547693
 20
441.469448
 42
-0.018038
  0
VERTEX
  8
0
 10
545.924362
 20
445.990533
 42
0.034906
  0
VERTEX
  8
0
 10
542.250338
 20
451.857493
 42
0.043643
  0
VERTEX
  8
0
 10
538.032484
 20
456.700689
 42
0.046989
  0
VERTEX
  8
0
 10
533.336850
 20
460.445071
 42
0.054303
  0
VERTEX
  8
0
 10
528.238658
 20
463.039630
 42
0.023062
  0
VERTEX
  8
0
 10
524.778611
 20
464.171452
 42
0.040950
  0
VERTEX
  8
0
 10
521.833918
 20
464.732196
 42
0.031955
  0
VERTEX
  8
0
 10
518.379160
 20
464.878872
 42
0.009055
  0
VERTEX
  8
0
 10
513.000000
 20
464.665919
 42
0.032354
  0
VERTEX
  8
0
 10
501.685605
 20
463.274487
 42
0.036272
  0
VERTEX
  8
0
 10
491.081484
 20
460.458525
 42
0.037287
  0
VERTEX
  8
0
 10
481.258143
 20
456.228468
 42
0.038376
  0
VERTEX
  8
0
 10
472.271365
 20
450.620851
 42
0.000000
  0
VERTEX
  8
0
 10
466.479155
 20
446.356869
 42
0.000000
  0
VERTEX
  8
0
 10
466.858051
 20
453.860105
 42
0.028854
  0
VERTEX
  8
0
 10
466.807385
 20
460.861313
 42
0.043231
  0
VERTEX
  8
0
 10
465.886216
 20
466.901636
 42
0.047298
  0
VERTEX
  8
0
 10
464.032666
 20
472.273225
 42
0.045889
  0
VERTEX
  8
0
 10
461.187789
 20
477.259110
 42
-0.019649
  0
VERTEX
  8
0
 10
458.961214
 20
480.725776
 42
-0.073871
  0
VERTEX
  8
0
 10
457.995305
 20
483.115177
 42
-0.052344
  0
VERTEX
  8
0
 10
457.603796
 20
486.061769
 42
-0.006587
  0
VERTEX
  8
0
 10
457.511544
 20
492.500000
 42
-0.034420
  0
VERTEX
  8
0
 10
458.122079
 20
501.509894
 42
-0.093953
  0
VERTEX
  8
0
 10
460.146102
 20
507.540144
 42
-0.086035
  0
VERTEX
  8
0
 10
464.354141
 20
512.713806
 42
-0.025819
  0
VERTEX
  8
0
 10
472.375847
 20
519.000000
 42
0.033900
  0
VERTEX
  8
0
 10
474.115644
 20
520.409321
 42
0.010581
  0
VERTEX
  8
0
 10
476.529027
 20
522.748438
 42
0.010521
  0
VERTEX
  8
0
 10
479.121420
 20
525.482420
 42
0.011430
  0
VERTEX
  8
0
 10
481.524016
 20
528.250000
 42
-0.009459
  0
VERTEX
  8
0
 10
484.983735
 20
532.267170
 42
-0.044248
  0
VERTEX
  8
0
 10
487.209861
 20
534.351278
 42
-0.180010
  0
VERTEX
  8
0
 10
488.400435
 20
534.729790
 42
-0.400111
  0
VERTEX
  8
0
 10
489.000000
 20
534.100489
 42
0.124342
  0
VERTEX
  8
0
 10
489.144108
 20
533.529967
 42
0.006835
  0
VERTEX
  8
0
 10
490.049359
 20
531.905868
 42
0.010253
  0
VERTEX
  8
0
 10
491.203783
 20
529.991613
 42
0.007291
  0
VERTEX
  8
0
 10
492.572287
 20
527.892582
 42
-0.014307
  0
VERTEX
  8
0
 10
494.431161
 20
524.952048
 42
-0.052202
  0
VERTEX
  8
0
 10
495.351676
 20
522.949175
 42
-0.074430
  0
VERTEX
  8
0
 10
495.667028
 20
521.195391
 42
-0.053744
  0
VERTEX
  8
0
 10
495.511846
 20
519.211455
 42
-0.086689
  0
VERTEX
  8
0
 10
494.112662
 20
515.475981
 42
-0.067651
  0
VERTEX
  8
0
 10
491.429351
 20
512.064114
 42
-0.068158
  0
VERTEX
  8
0
 10
487.957036
 20
509.515550
 42
-0.091182
  0
VERTEX
  8
0
 10
484.249399
 20
508.306626
 42
0.030413
  0
VERTEX
  8
0
 10
481.462102
 20
507.758598
 42
0.150353
  0
VERTEX
  8
0
 10
480.117055
 20
506.927604
 42
0.558884
  0
VERTEX
  8
0
 10
480.325261
 20
506.255405
 42
0.065321
  0
VERTEX
  8
0
 10
482.250000
 20
506.021962
 42
0.082329
  0
VERTEX
  8
0
 10
485.603043
 20
506.611515
 42
0.047863
  0
VERTEX
  8
0
 10
489.320458
 20
508.334367
 42
0.047515
  0
VERTEX
  8
0
 10
492.686465
 20
510.760827
 42
0.074554
  0
VERTEX
  8
0
 10
494.986646
 20
513.478393
 42
0.000000
  0
VERTEX
  8
0
 10
497.282367
 20
517.192947
 42
0.000000
  0
VERTEX
  8
0
 10
499.342437
 20
513.588255
 42
0.045312
  0
VERTEX
  8
0
 10
500.463049
 20
511.984083
 42
0.033549
  0
VERTEX
  8
0
 10
501.966031
 20
510.425986
 42
0.032948
  0
VERTEX
  8
0
 10
503.700736
 20
509.050372
 42
0.038455
  0
VERTEX
  8
0
 10
505.516978
 20
507.991781
 42
0.039795
  0
VERTEX
  8
0
 10
508.763963
 20
506.727564
 42
0.045477
  0
VERTEX
  8
0
 10
512.028763
 20
506.062856
 42
0.080831
  0
VERTEX
  8
0
 10
514.147595
 20
506.171754
 42
0.517979
  0
VERTEX
  8
0
 10
514.500000
 20
507.000000
 42
0.132364
  0
VERTEX
  8
0
 10
514.090466
 20
507.384610
 42
0.044930
  0
VERTEX
  8
0
 10
513.331887
 20
507.706250
 42
0.040939
  0
VERTEX
  8
0
 10
512.390011
 20
507.926182
 42
0.036907
  0
VERTEX
  8
0
 10
511.391323
 20
508.000000
 42
-0.104219
  0
VERTEX
  8
0
 10
507.347818
 20
508.852071
 42
-0.072375
  0
VERTEX
  8
0
 10
503.378959
 20
511.339643
 42
-0.071023
  0
VERTEX
  8
0
 10
500.213241
 20
514.915626
 42
-0.091909
  0
VERTEX
  8
0
 10
498.512180
 20
518.944544
 42
-0.049418
  0
VERTEX
  8
0
 10
498.334780
 20
520.448039
 42
-0.081454
  0
VERTEX
  8
0
 10
498.517806
 20
521.711547
 42
-0.075222
  0
VERTEX
  8
0
 10
499.110532
 20
522.918288
 42
-0.036540
  0
VERTEX
  8
0
 10
500.193039
 20
524.257544
 42
0.010756
  0
VERTEX
  8
0
 10
501.347988
 20
525.544708
 42
0.003510
  0
VERTEX
  8
0
 10
502.997330
 20
527.491865
 42
0.003496
  0
VERTEX
  8
0
 10
504.799389
 20
529.680775
 42
0.003937
  0
VERTEX
  8
0
 10
506.500000
 20
531.810193
 42
-0.005540
  0
VERTEX
  8
0
 10
508.071171
 20
533.764649
 42
-0.008483
  0
VERTEX
  8
0
 10
509.479951
 20
535.419818
 42
-0.003855
  0
VERTEX
  8
0
 10
510.704681
 20
536.788822
 42
-0.186930
  0
VERTEX
  8
0
 10
511.027494
 20
536.950233
 42
-0.138089
  0
VERTEX
  8
0
 10
511.350248
 20
536.891377
 42
-0.011082
  0
VERTEX
  8
0
 10
512.126335
 20
536.490310
 42
-0.014306
  0
VERTEX
  8
0
 10
513.041993
 20
535.956566
 42
-0.010482
  0
SEQEND
  0
ENDSEC
  0
EOF
