<?xml version="1.0" standalone="no"?>
<!DOCTYPE svg PUBLIC "-//W3C//DTD SVG 20010904//EN"
 "http://www.w3.org/TR/2001/REC-SVG-20010904/DTD/svg10.dtd">
<svg version="1.0" xmlns="http://www.w3.org/2000/svg"
 width="886.000000pt" height="886.000000pt" viewBox="0 0 886.000000 886.000000"
 preserveAspectRatio="xMidYMid meet">

<g transform="translate(0.000000,886.000000) scale(0.100000,-0.100000)"
fill="#000000" stroke="none">
<path d="M5122 5870 c-109 -15 -246 -68 -355 -137 -34 -21 -42 -23 -73 -13
-50 17 -128 14 -169 -6 -50 -23 -110 -95 -125 -149 -21 -74 -2 -146 56 -214
25 -30 27 -38 25 -124 -1 -51 3 -117 9 -147 40 -220 39 -260 -8 -260 -75 -1
-169 -79 -220 -184 -41 -84 -56 -167 -48 -268 4 -46 8 -98 9 -117 3 -41 60
-111 111 -135 46 -21 131 -20 182 3 23 10 44 23 48 29 3 6 20 -4 39 -23 38
-38 116 -65 187 -65 26 0 108 11 181 25 175 34 216 25 234 -47 6 -25 -5 -39
-127 -162 -82 -83 -162 -153 -209 -183 -76 -50 -183 -95 -253 -108 -31 -6 -36
-5 -36 12 0 27 -50 103 -90 136 -87 73 -218 108 -331 88 -129 -22 -229 -97
-286 -212 l-30 -60 -7 41 c-4 23 -11 117 -16 209 -5 91 -12 185 -15 207 -7 38
-4 45 31 84 47 52 132 96 219 112 63 12 66 14 60 38 -13 52 -51 117 -95 160
-161 162 -430 135 -555 -56 -22 -34 -46 -70 -53 -80 -17 -26 -8 95 20 271 29
179 29 255 2 292 -33 43 -78 37 -126 -17 -106 -119 -164 -383 -139 -637 10
-104 17 -145 46 -278 l6 -30 -31 35 c-79 89 -186 355 -231 575 -25 120 -31
320 -16 525 9 115 0 152 -39 158 -45 6 -116 -118 -149 -258 -23 -98 -31 -347
-16 -476 37 -309 131 -579 285 -814 185 -282 426 -437 798 -512 100 -20 141
-23 358 -22 224 0 257 3 382 27 569 112 1015 434 1251 903 161 322 209 744
129 1144 l-17 85 55 31 c125 70 169 197 110 314 -43 84 -106 124 -195 124 -58
-1 -134 -28 -150 -54 -4 -6 -37 18 -77 55 -76 70 -175 125 -268 149 -75 19
-202 26 -278 16z m353 -311 c5 -5 -1 -9 -18 -9 -15 0 -40 -12 -59 -29 -29 -26
-33 -36 -33 -78 0 -65 23 -99 77 -113 52 -14 35 -30 -33 -30 -61 0 -110 32
-127 85 -25 77 13 164 81 184 35 11 96 5 112 -10z m-696 -18 c10 -7 6 -11 -16
-15 -52 -12 -78 -49 -78 -111 0 -64 28 -101 84 -112 l36 -6 -33 -14 c-66 -27
-149 13 -173 84 -21 64 12 152 65 173 28 12 97 12 115 1z m361 -188 c14 -9 48
-37 76 -62 27 -25 88 -66 134 -91 141 -75 175 -116 206 -247 24 -102 14 -308
-20 -432 -38 -134 -38 -134 -77 -61 -45 85 -106 144 -177 170 -49 19 -70 21
-152 17 -156 -9 -293 -57 -407 -141 l-58 -42 4 75 c5 99 -12 170 -57 234 -36
51 -37 53 -37 152 0 138 21 175 149 265 19 14 60 55 91 93 52 62 75 80 75 58
0 -5 16 -33 36 -62 29 -44 34 -59 29 -87 -10 -52 -61 -102 -113 -109 -44 -6
-59 -23 -19 -23 42 1 103 37 127 75 l23 37 20 -36 c13 -22 37 -44 62 -56 43
-21 101 -27 90 -10 -3 6 -17 10 -31 10 -55 0 -116 53 -129 109 -5 22 -1 35 17
54 13 13 41 47 63 75 22 28 42 51 45 52 3 0 17 -8 30 -17z"/>
</g>
</svg>
